<?xml version="1.0" standalone="no"?>
<!DOCTYPE svg PUBLIC "-//W3C//DTD SVG 20010904//EN"
 "http://www.w3.org/TR/2001/REC-SVG-20010904/DTD/svg10.dtd">
<svg version="1.0" xmlns="http://www.w3.org/2000/svg"
 width="1080.000000pt" height="1080.000000pt" viewBox="0 0 1080.000000 1080.000000"
 preserveAspectRatio="xMidYMid meet">

<g transform="translate(0.000000,1080.000000) scale(0.100000,-0.100000)"
fill="#000000" stroke="none">
<path d="M0 5400 l0 -5400 5400 0 5400 0 0 5400 0 5400 -5400 0 -5400 0 0
-5400z m3678 1485 c91 -22 150 -55 213 -122 139 -146 198 -379 185 -738 -4
-99 -9 -202 -13 -229 l-6 -49 34 6 c19 4 138 16 264 28 416 38 578 20 671 -76
52 -53 69 -111 61 -208 -7 -91 -31 -164 -117 -346 -104 -222 -124 -317 -80
-389 45 -73 157 -72 275 3 88 55 183 164 240 275 10 19 67 170 126 334 59 165
116 311 127 325 82 111 265 73 337 -69 13 -26 31 -85 40 -131 30 -155 57 -182
114 -111 17 20 66 83 111 139 103 130 196 214 289 261 72 35 79 37 177 37 99
0 103 -1 141 -31 55 -44 80 -101 99 -233 18 -128 33 -172 66 -195 62 -44 137
-3 331 182 167 160 233 210 329 250 54 23 77 27 168 27 117 0 156 -13 212 -69
49 -48 71 -109 76 -207 6 -112 -18 -198 -105 -383 -86 -185 -103 -236 -103
-313 0 -58 3 -66 34 -100 30 -33 39 -37 94 -41 145 -10 280 109 358 319 125
337 330 596 565 715 135 67 187 79 359 79 153 0 156 -1 239 -34 73 -29 95 -45
162 -111 119 -116 165 -231 176 -435 4 -80 1 -140 -12 -220 -74 -473 -384
-842 -779 -930 -117 -26 -304 -17 -411 19 -150 51 -256 143 -330 288 -25 48
-50 90 -55 93 -15 9 -50 -13 -125 -82 -177 -162 -372 -284 -514 -319 -93 -23
-248 -16 -316 15 -128 57 -183 184 -156 361 15 93 34 158 100 328 63 162 85
244 77 287 -18 94 -159 114 -266 37 -116 -82 -194 -246 -286 -597 -53 -201
-78 -257 -143 -318 -139 -130 -396 -90 -458 71 -26 67 -23 178 6 267 13 39 50
129 82 201 87 197 107 287 79 358 -14 39 -66 66 -125 66 -191 -1 -345 -258
-500 -839 -48 -180 -68 -211 -159 -241 -59 -19 -200 -9 -257 18 -102 50 -167
149 -177 271 -5 73 -15 101 -37 101 -8 0 -58 -39 -111 -87 -249 -227 -417
-313 -613 -313 -159 0 -256 65 -295 199 -43 145 -1 311 160 634 90 179 124
276 124 352 0 51 -3 60 -33 90 -51 51 -151 65 -336 46 l-64 -6 -42 -160 c-145
-555 -347 -999 -537 -1181 -135 -129 -293 -165 -435 -99 -97 44 -139 135 -131
277 9 143 87 329 290 693 167 299 212 388 192 382 -40 -12 -923 -186 -1002
-198 l-84 -13 -25 -55 c-59 -133 -136 -320 -208 -506 -42 -110 -90 -235 -107
-278 -63 -160 -153 -273 -256 -324 -50 -24 -69 -28 -147 -28 -103 0 -158 19
-213 75 -155 155 -110 448 143 936 l73 141 -67 12 c-95 17 -225 63 -306 108
-85 46 -193 150 -228 219 -68 135 -56 285 27 339 67 44 125 39 381 -30 132
-35 324 -68 471 -80 l81 -6 39 53 c281 388 707 810 1019 1009 279 177 552 251
753 204z m1647 -161 c71 -25 148 -104 169 -174 52 -176 -47 -390 -221 -478
-192 -97 -415 -43 -485 117 -41 93 -20 244 47 350 59 95 178 178 285 201 58
12 142 5 205 -16z m4367 -64 c65 -24 128 -86 160 -155 31 -68 32 -180 1 -246
-51 -113 -140 -172 -268 -177 -112 -5 -176 20 -244 94 -78 85 -100 187 -65
304 20 68 107 159 174 183 65 23 177 21 242 -3z m-2232 -205 c46 -118 87 -215
90 -215 3 0 19 37 37 83 18 45 55 142 84 215 l51 132 59 0 58 0 -44 -107 c-25
-60 -80 -191 -122 -293 l-78 -185 -48 -3 c-38 -3 -48 0 -54 15 -3 10 -57 141
-120 291 -62 150 -113 275 -113 277 0 3 26 5 58 5 l57 0 85 -215z m807 -63
c67 -152 125 -285 129 -295 6 -17 1 -18 -50 -15 l-57 3 -31 73 -30 72 -133 0
c-96 0 -136 -4 -142 -12 -4 -7 -19 -39 -33 -72 l-26 -59 -52 -4 c-34 -3 -52 0
-52 7 0 6 57 139 126 295 l126 285 52 0 51 0 122 -278z m334 61 c1 -120 2
-229 2 -243 l2 -25 155 -3 155 -2 -1 -48 -2 -47 -206 -1 -206 -2 0 294 0 294
50 0 50 0 1 -217z m529 -79 l0 -295 -52 3 -53 3 -3 293 -2 292 55 0 55 0 0
-296z"/>
<path d="M3270 6472 c-100 -34 -200 -97 -320 -202 -124 -109 -347 -398 -464
-602 l-27 -48 69 0 c147 0 954 68 967 82 13 13 55 186 70 284 18 119 20 272 4
343 -12 57 -41 104 -82 135 -39 28 -143 32 -217 8z"/>
<path d="M9279 5437 c-139 -52 -274 -225 -325 -417 -10 -37 -17 -104 -18 -155
0 -78 3 -96 24 -134 36 -64 78 -83 165 -78 85 5 150 41 220 120 139 159 211
449 145 582 -14 27 -36 57 -50 67 -34 24 -115 32 -161 15z"/>
<path d="M9525 6581 c-45 -11 -69 -26 -103 -65 -68 -78 -68 -195 0 -272 75
-85 191 -94 274 -22 65 57 86 133 60 220 -19 66 -66 114 -131 134 -52 15 -56
15 -100 5z"/>
<path d="M8041 6435 c-24 -58 -42 -108 -39 -111 3 -2 46 -3 96 -2 l91 3 -47
107 c-26 59 -49 108 -52 108 -3 0 -25 -48 -49 -105z"/>
</g>
</svg>
